# xmcd
#
# Track frame offsets:
#	150
#	33766
#	66178
#	103053
#	132979
#	156366
#	174525
#	204419
#
# Disc length: 3182 seconds
#
# Revision: 1
# Processed by: cddbd v1.5.2PL0 Copyright (c) Steve Scherf et al.
# Submitted via: audiograbber 1.83.01
#
DISCID=6a0c6c08
DTITLE=New Order - Power, Corruption and Lies (Bonus Disc)
DYEAR=1983
DGENRE=Rock
TTITLE0=Blue Monday
TTITLE1=The Beach
TTITLE2=Confusion
TTITLE3=Thieves Like Us
TTITLE4=Lonesome Tonight
TTITLE5=Murder
TTITLE6=Thieves Like Us (Instrumental)
TTITLE7=Confusion (Instrumental)
EXTD=
EXTT0=
EXTT1=
EXTT2=
EXTT3=
EXTT4=
EXTT5=
EXTT6=
EXTT7=
PLAYORDER=
